<svg width="800" height="800" viewBox="0 0 512 512" xmlns="http://www.w3.org/2000/svg">
    <path d="M256 85.333h170.667V128H256V85.333Zm0 149.334h170.667v42.666H256v-42.666ZM85.333 341.333H192V448H85.333V341.333Zm32 32V416H160v-42.667h-42.667ZM256 384h170.667v42.667H256V384ZM189.816 46.126l25.364 19.51-76.033 98.843-68.616-60.04 21.072-24.082 42.968 37.574 55.245-71.805Zm0 149.333 25.364 19.51-76.033 98.843-68.616-60.04 21.072-24.082 42.968 37.574 55.245-71.805Z" fill="#000" fill-rule="evenodd"/>
</svg>
