<svg width="800" height="800" viewBox="0 0 512 512" xmlns="http://www.w3.org/2000/svg">
    <path d="m127.978 312.432-.006 48.7.03 1.596c1.173 16.27 55.662 42.605 127.998 42.605 39.56 0 76.057-7.718 101.598-20.489 17.585-8.792 25.344-17.165 26.3-21.347l.102-.83.001-50.223c-31.272 17.716-77.027 28.89-128.001 28.89-50.986 0-96.75-11.18-128.022-28.902ZM387.21 203.905l-1.627.962c-31.3 18.243-77.743 29.8-129.584 29.8-51.82 0-98.247-11.548-129.547-29.778.509.296 1.022.591 1.539.884L127.985 256H128c0 3.819 7.561 12.758 26.402 22.178 25.541 12.77 62.037 20.489 101.598 20.489 39.56 0 76.057-7.719 101.598-20.49C376.438 268.758 384 259.82 384 256l.001-50.223c1.088-.616 2.158-1.24 3.21-1.872ZM256 106.667c-39.56 0-76.057 7.718-101.598 20.489-18.84 9.42-26.402 18.358-26.402 22.177 0 3.82 7.561 12.758 26.402 22.178C179.943 184.28 216.439 192 256 192c39.56 0 76.057-7.718 101.598-20.49 18.84-9.42 26.402-18.358 26.402-22.177 0-3.819-7.561-12.757-26.402-22.177-25.541-12.771-62.037-20.49-101.598-20.49Zm170.667 256C426.667 409.795 350.257 448 256 448c-92.162 0-167.262-36.526-170.554-82.205l-.113-3.128V149.333c0 .452.007.903.021 1.352l-.02-1.352C85.333 102.205 161.743 64 256 64c94.257 0 170.667 38.205 170.667 85.333v213.334Z" fill="#000" fill-rule="evenodd"/>
</svg>
