<?xml version="1.0" encoding="UTF-8"?>
<svg version="1.1" xmlns="http://www.w3.org/2000/svg" width="359" height="335">
<path d="M0 0 C2.13424354 1.84297444 4.23136225 3.72235757 6.3125 5.625 C6.82409668 6.09131836 7.33569336 6.55763672 7.86279297 7.03808594 C34.59223148 31.74141096 51.90480259 68.96267073 53.42480469 105.31054688 C54.76592982 145.06627618 42.98325499 184.2690594 15.75 213.9375 C13.95197388 215.8478833 12.13363964 217.73641074 10.3125 219.625 C9.23935547 220.79289062 9.23935547 220.79289062 8.14453125 221.984375 C-16.09774208 247.63661169 -54.09027148 262.64663198 -88.9921875 263.90625 C-129.2406497 264.7609642 -167.93111436 251.86056439 -197.36474609 223.83764648 C-198.80962363 222.43750555 -200.24876359 221.0314506 -201.6875 219.625 C-202.41066406 218.96371094 -203.13382813 218.30242187 -203.87890625 217.62109375 C-229.80611586 193.36998658 -243.48637269 154.92253853 -244.96875 120.1484375 C-245.79829484 87.72155822 -237.11324883 54.89982728 -217.6875 28.625 C-217.11386719 27.84125 -216.54023438 27.0575 -215.94921875 26.25 C-211.5361118 20.4064377 -206.67652414 14.97971178 -201.6875 9.625 C-201.06230469 8.94566406 -200.43710938 8.26632813 -199.79296875 7.56640625 C-147.63543944 -47.00684021 -56.46544775 -47.26829622 0 0 Z " fill="#010205" transform="translate(263.6875,60.375)"/>
<path d="M0 0 C2.13424354 1.84297444 4.23136225 3.72235757 6.3125 5.625 C6.82409668 6.09131836 7.33569336 6.55763672 7.86279297 7.03808594 C34.59223148 31.74141096 51.90480259 68.96267073 53.42480469 105.31054688 C54.76592982 145.06627618 42.98325499 184.2690594 15.75 213.9375 C13.95197388 215.8478833 12.13363964 217.73641074 10.3125 219.625 C9.23935547 220.79289062 9.23935547 220.79289062 8.14453125 221.984375 C-16.09774208 247.63661169 -54.09027148 262.64663198 -88.9921875 263.90625 C-129.2406497 264.7609642 -167.93111436 251.86056439 -197.36474609 223.83764648 C-198.80962363 222.43750555 -200.24876359 221.0314506 -201.6875 219.625 C-202.41066406 218.96371094 -203.13382813 218.30242187 -203.87890625 217.62109375 C-229.80611586 193.36998658 -243.48637269 154.92253853 -244.96875 120.1484375 C-245.79829484 87.72155822 -237.11324883 54.89982728 -217.6875 28.625 C-217.11386719 27.84125 -216.54023438 27.0575 -215.94921875 26.25 C-211.5361118 20.4064377 -206.67652414 14.97971178 -201.6875 9.625 C-201.06230469 8.94566406 -200.43710938 8.26632813 -199.79296875 7.56640625 C-147.63543944 -47.00684021 -56.46544775 -47.26829622 0 0 Z M-174.625 11.5625 C-175.19089844 12.21089844 -175.75679688 12.85929687 -176.33984375 13.52734375 C-177.86392242 15.89960533 -178.30632257 17.85060729 -178.6875 20.625 C-177.57890625 20.72296875 -176.4703125 20.8209375 -175.328125 20.921875 C-173.86448816 21.0719916 -172.40095124 21.22308465 -170.9375 21.375 C-170.20789063 21.436875 -169.47828125 21.49875 -168.7265625 21.5625 C-165.21837846 21.94521099 -163.02433648 22.35681809 -160.234375 24.578125 C-157.8985403 27.66897697 -157.53949701 29.18919242 -157.875 33 C-157.93042969 33.77085938 -157.98585938 34.54171875 -158.04296875 35.3359375 C-158.95457469 38.57351979 -159.90832965 39.69203762 -162.6875 41.625 C-165.76608723 42.24512022 -168.80376367 42.32113891 -171.9375 42.375 C-172.77796875 42.40464844 -173.6184375 42.43429688 -174.484375 42.46484375 C-176.5515715 42.53531636 -178.61954033 42.58244939 -180.6875 42.625 C-180.6875 44.605 -180.6875 46.585 -180.6875 48.625 C-179.60210937 48.63917969 -178.51671875 48.65335938 -177.3984375 48.66796875 C-175.95308387 48.71489582 -174.50777269 48.76314305 -173.0625 48.8125 C-171.99322266 48.82120117 -171.99322266 48.82120117 -170.90234375 48.83007812 C-165.22545698 49.06444501 -162.67723293 50.58002462 -158.6875 54.625 C-157.08020007 57.83959986 -157.06819145 61.14888103 -157.6875 64.625 C-160.125 67.5625 -160.125 67.5625 -162.6875 69.625 C-163.0175 69.955 -163.3475 70.285 -163.6875 70.625 C-166.37985776 70.86178716 -169.05248156 71.04698025 -171.75 71.1875 C-172.88791992 71.25227539 -172.88791992 71.25227539 -174.04882812 71.31835938 C-175.92815438 71.42473633 -177.80780244 71.52539934 -179.6875 71.625 C-179.6875 73.605 -179.6875 75.585 -179.6875 77.625 C-178.59050781 77.63917969 -177.49351562 77.65335937 -176.36328125 77.66796875 C-174.90881302 77.71488708 -173.45438723 77.76313438 -172 77.8125 C-170.9181543 77.82120117 -170.9181543 77.82120117 -169.81445312 77.83007812 C-165.64405805 78.00146422 -164.08053492 78.30257637 -160.73046875 81.05078125 C-157.73630985 84.82353597 -157.30974525 86.80862699 -157.6875 91.625 C-159.00437072 94.67459535 -159.86460337 96.20460715 -162.84375 97.7265625 C-166.27076035 98.80927181 -169.41448284 99.04894296 -173 99.25 C-174.88138672 99.36214844 -174.88138672 99.36214844 -176.80078125 99.4765625 C-177.75339844 99.52554688 -178.70601563 99.57453125 -179.6875 99.625 C-179.6875 101.605 -179.6875 103.585 -179.6875 105.625 C-178.67429687 105.65078125 -177.66109375 105.6765625 -176.6171875 105.703125 C-175.26558403 105.75944181 -173.91402319 105.81678833 -172.5625 105.875 C-171.89734375 105.88917969 -171.2321875 105.90335937 -170.546875 105.91796875 C-165.53249867 106.16377151 -162.5205109 107.40852803 -158.6875 110.625 C-157.32539909 114.8715499 -157.55024856 117.15987013 -158.8125 121.4375 C-160.99373681 125.14560258 -161.67901466 125.45244987 -165.6875 126.625 C-168.31555842 126.91367792 -170.86660831 127.12904038 -173.5 127.25 C-174.19287109 127.28867188 -174.88574219 127.32734375 -175.59960938 127.3671875 C-177.29517015 127.46073568 -178.99129712 127.54392364 -180.6875 127.625 C-180.6875 129.935 -180.6875 132.245 -180.6875 134.625 C-178.80804688 134.69847656 -178.80804688 134.69847656 -176.890625 134.7734375 C-175.23956179 134.84848583 -173.58852119 134.92403277 -171.9375 135 C-171.1125 135.0309375 -170.2875 135.061875 -169.4375 135.09375 C-168.23867187 135.15175781 -168.23867187 135.15175781 -167.015625 135.2109375 C-166.2824707 135.2423584 -165.54931641 135.2737793 -164.79394531 135.30615234 C-162.38894868 135.67019101 -160.73873362 136.32185337 -158.6875 137.625 C-158.0078125 140.05078125 -158.0078125 140.05078125 -157.8125 142.9375 C-157.73257813 143.88238281 -157.65265625 144.82726562 -157.5703125 145.80078125 C-157.70112851 148.95344698 -158.09837641 150.89339998 -159.6875 153.625 C-163.78359303 156.10241433 -168.33416213 156.04985682 -173 156.25 C-173.74056641 156.28867188 -174.48113281 156.32734375 -175.24414062 156.3671875 C-177.05821309 156.46081705 -178.87282116 156.54396851 -180.6875 156.625 C-180.6875 158.605 -180.6875 160.585 -180.6875 162.625 C-179.50671875 162.68558594 -178.3259375 162.74617187 -177.109375 162.80859375 C-175.5520723 162.89302582 -173.99478121 162.97767249 -172.4375 163.0625 C-171.66019531 163.10181641 -170.88289063 163.14113281 -170.08203125 163.18164062 C-169.32792969 163.22353516 -168.57382813 163.26542969 -167.796875 163.30859375 C-166.75998535 163.36358032 -166.75998535 163.36358032 -165.70214844 163.41967773 C-163.58829158 163.6351108 -161.70335579 163.94647267 -159.6875 164.625 C-157.3909052 168.52921116 -157.29031788 172.17656023 -157.6875 176.625 C-159.09210697 179.49805972 -160.43260999 181.37010999 -162.6875 183.625 C-165.58717757 183.93175232 -168.40533178 184.13673371 -171.3125 184.25 C-172.11429688 184.28867188 -172.91609375 184.32734375 -173.7421875 184.3671875 C-175.72357556 184.46153931 -177.70550645 184.54436215 -179.6875 184.625 C-180.64654895 193.64716416 -178.52712464 199.9946429 -173.6875 207.625 C-172.22845411 209.44691886 -172.22845411 209.44691886 -170.6875 210.625 C-170.0275 210.625 -169.3675 210.625 -168.6875 210.625 C-168.6875 211.285 -168.6875 211.945 -168.6875 212.625 C-159.94022619 217.87921234 -153.03958511 219.49920561 -142.90771484 219.38549805 C-141.57241904 219.39201001 -140.23713369 219.40108431 -138.90187073 219.41249084 C-135.31280981 219.4353507 -131.72482731 219.42098799 -128.13580275 219.39802146 C-124.35953456 219.37894453 -120.58333134 219.39028849 -116.80703735 219.39692688 C-110.47079561 219.40324423 -104.13498031 219.38511579 -97.79882812 219.35229492 C-90.49583561 219.31477633 -83.19364923 219.31660013 -75.89061391 219.3393361 C-68.83295724 219.36035266 -61.77559572 219.35297499 -54.7179451 219.33301735 C-51.72849611 219.3250758 -48.73929982 219.32696872 -45.74985886 219.33704185 C-41.56895069 219.34964359 -37.389294 219.32071897 -33.20849609 219.2878418 C-31.98225021 219.29639191 -30.75600433 219.30494202 -29.49259949 219.31375122 C-20.39060734 219.19063006 -13.73557115 217.14506187 -6.8125 211.125 C-6.11125 210.3 -5.41 209.475 -4.6875 208.625 C-4.006875 207.8825 -3.32625 207.14 -2.625 206.375 C3.34920927 197.89547716 3.8981598 190.22186082 3.84594727 180.02416992 C3.85301647 178.56449008 3.86176568 177.10481756 3.87205505 175.64515686 C3.89445095 171.70273968 3.89163188 167.76072584 3.88273358 163.81826949 C3.87760154 160.51592043 3.88493443 157.21364569 3.89220566 153.9113043 C3.90917474 146.11357287 3.9056705 138.31603726 3.88891602 130.51831055 C3.87200983 122.50031446 3.88781506 114.48286343 3.9201389 106.4649269 C3.94692039 99.55756796 3.95408745 92.65037779 3.94562382 85.7429722 C3.94071793 81.627879 3.94278178 77.51311324 3.96341133 73.39806175 C3.98190292 69.52439142 3.97564786 65.65149804 3.95121193 61.77786827 C3.94624573 60.3654671 3.94958339 58.95300534 3.96236038 57.54065323 C4.05304356 46.64504133 2.5310439 36.7642537 -5.1875 28.5625 C-7.22195041 26.71299963 -8.83473572 25.55138214 -11.3125 24.3125 C-14.68022029 21.91964611 -15.65457277 18.8178367 -17.37890625 15.1328125 C-20.16196388 9.79931102 -23.85574627 6.59770681 -29.41392708 4.27560234 C-34.2746833 2.88465537 -39.36400301 3.20192536 -44.38061523 3.22094727 C-45.64650482 3.21408401 -46.91239441 3.20722076 -48.21664429 3.20014954 C-51.67334235 3.18227257 -55.12978581 3.18337609 -58.58651614 3.18909192 C-61.47905381 3.19219173 -64.37154314 3.18608254 -67.26407391 3.18005317 C-74.09121097 3.1660275 -80.91822285 3.16755285 -87.74536133 3.17895508 C-94.77381686 3.19043459 -101.80189073 3.17635927 -108.83029598 3.1495586 C-114.87894696 3.12736287 -120.92747847 3.1207729 -126.97616726 3.12663502 C-130.58252137 3.12999656 -134.18863087 3.12764338 -137.79495049 3.11038399 C-141.81854087 3.09196632 -145.84139423 3.10614151 -149.86499023 3.12329102 C-151.05017746 3.11362305 -152.23536469 3.10395508 -153.45646667 3.09399414 C-162.10894937 3.17112855 -168.78543876 4.62372724 -174.625 11.5625 Z " fill="#7AAEEE" transform="translate(263.6875,60.375)"/>
<path d="M0 0 C36 0 36 0 44 3 C49.99650548 9.25167592 50.34107831 13.03876168 50.2890625 21.5 C49.79050021 27.5366461 47.28100302 30.84166182 43 35 C43.72316406 35.52787109 43.72316406 35.52787109 44.4609375 36.06640625 C49.01757233 39.62802082 51.11071887 42.07145916 52 48 C52.93636844 55.7120345 51.51693109 61.61516507 47 68 C35.14356194 79.77541457 14.08780307 74 0 74 C0 49.58 0 25.16 0 0 Z " fill="#3A6BF6" transform="translate(182,161)"/>
<path d="M0 0 C3.7904755 1.76043004 5.68137845 3.44478028 8 7 C10.40702425 14.24808419 10.289193 21.29240229 10.2746582 28.87646484 C10.27901188 30.27027152 10.2841972 31.66407581 10.29014587 33.05787659 C10.3034771 36.82451032 10.3041211 40.59104335 10.30158257 44.35769606 C10.3005088 47.51104455 10.30540663 50.66437301 10.310188 53.81771719 C10.321263 61.26195708 10.321732 68.7061465 10.31567383 76.15039062 C10.309636 83.80984432 10.32194475 91.46911423 10.3432439 99.12853658 C10.36090278 105.72329128 10.36685449 112.3179877 10.36360615 118.91276515 C10.36179988 122.84329585 10.36436353 126.77369544 10.37832069 130.70420456 C10.3909644 134.40285395 10.38889375 138.10121842 10.37590981 141.79986382 C10.37244492 143.78981658 10.38367377 145.77977832 10.39547729 147.7696991 C10.33914726 157.45001342 9.43211192 165.86436418 2.98828125 173.4296875 C-4.39275069 179.25910761 -10.87286281 179.57897842 -19.99023438 179.51757812 C-21.91854851 179.52809204 -21.91854851 179.52809204 -23.88581848 179.53881836 C-27.39212384 179.55696081 -30.89795526 179.55002233 -34.40426826 179.53730202 C-38.0854018 179.52712688 -41.76649659 179.53658016 -45.44763184 179.54284668 C-51.62775914 179.55011003 -57.80769481 179.54057006 -63.98779297 179.52148438 C-71.11796028 179.49971798 -78.24766998 179.5067703 -85.37782621 179.52879 C-91.51568102 179.54698163 -97.65339861 179.54948402 -103.79127169 179.53903532 C-107.45013198 179.53282096 -111.10877766 179.5319076 -114.7676239 179.54518127 C-118.84861045 179.55895406 -122.92881651 179.53982904 -127.00976562 179.51757812 C-128.81324211 179.52972351 -128.81324211 179.52972351 -130.65315247 179.54211426 C-138.63431301 179.46163112 -144.11303447 178.4135958 -150.27734375 173 C-150.82519531 172.34 -151.37304688 171.68 -151.9375 171 C-152.50339844 170.34 -153.06929688 169.68 -153.65234375 169 C-155.03568686 166.94703863 -155.47042537 165.38821676 -156 163 C-154.94413696 163.48666641 -153.88827393 163.97333282 -152.80041504 164.4747467 C-147.01375105 166.62750218 -141.30052391 166.42728012 -135.19335938 166.40405273 C-133.92732376 166.41091599 -132.66128815 166.41777924 -131.35688782 166.42485046 C-127.90438084 166.44270427 -124.45212909 166.44162856 -120.99958992 166.43590808 C-118.10948742 166.43280551 -115.2194332 166.43892036 -112.3293376 166.44494683 C-105.50841682 166.4589643 -98.68762138 166.45745344 -91.86669922 166.44604492 C-84.84560724 166.43456065 -77.82489711 166.44865061 -70.80385542 166.4754414 C-64.75943051 166.49763631 -58.71512514 166.50422744 -52.6706624 166.49836498 C-49.06767656 166.49500392 -45.46493556 166.49735366 -41.86198425 166.51461601 C-37.84329226 166.53303251 -33.82533824 166.51885934 -29.80664062 166.50170898 C-28.62302444 166.51137695 -27.43940826 166.52104492 -26.21992493 166.53100586 C-18.47537527 166.46187485 -13.0095302 165.45996139 -6.9765625 160.25390625 C-6.30753906 159.41666016 -6.30753906 159.41666016 -5.625 158.5625 C-5.16351563 158.00691406 -4.70203125 157.45132813 -4.2265625 156.87890625 C-1.4101561 152.56460217 -0.74717496 148.81234587 -0.7215271 143.70414734 C-0.71036362 142.43515091 -0.69920013 141.16615448 -0.68769836 139.85870361 C-0.68533363 138.4600833 -0.68315794 137.06146267 -0.68115234 135.6628418 C-0.67185028 134.18428501 -0.66168119 132.70573346 -0.65071106 131.22718811 C-0.62342831 127.21935865 -0.60826678 123.21156431 -0.59528303 119.20366645 C-0.57964495 115.0129187 -0.55285688 110.82224259 -0.5272522 106.63154602 C-0.48047642 98.69856282 -0.44372649 90.76556612 -0.41057932 82.83251554 C-0.37234946 73.79987905 -0.32294155 64.76731452 -0.27259517 55.73473871 C-0.16929317 37.15654515 -0.08002713 18.57830766 0 0 Z " fill="#7BADEB" transform="translate(249,93)"/>
<path d="M0 0 C6.27 0 12.54 0 19 0 C19.33 9.9 19.66 19.8 20 30 C24.1767028 19.20092812 24.1767028 19.20092812 27.75 8.25 C29.87401055 1.12598945 29.87401055 1.12598945 31 0 C32.63472882 -0.08700342 34.27314055 -0.10701063 35.91015625 -0.09765625 C37.39418945 -0.09282227 37.39418945 -0.09282227 38.90820312 -0.08789062 C39.94912109 -0.07951172 40.99003906 -0.07113281 42.0625 -0.0625 C43.62967773 -0.05573242 43.62967773 -0.05573242 45.22851562 -0.04882812 C47.8190666 -0.03699913 50.40950559 -0.02051689 53 0 C51.96163796 3.00115344 50.91862187 6.00067197 49.875 9 C49.40610352 10.35484497 49.40610352 10.35484497 48.92773438 11.73706055 C47.41683816 16.07325638 45.87537225 20.38297978 44.1640625 24.64453125 C43.74278076 25.70510742 43.74278076 25.70510742 43.31298828 26.78710938 C42.7860022 28.09998521 42.24604924 29.40775935 41.69091797 30.70898438 C38.60122181 38.45515973 41.50019502 44.97385569 44.3125 52.3125 C44.62646729 53.149021 44.94043457 53.98554199 45.26391602 54.84741211 C47.21666657 60.02705905 49.22725017 65.18119392 51.37109375 70.28515625 C52 72 52 72 52 74 C44.41 74 36.82 74 29 74 C27.66138017 69.89748878 26.32889604 65.79316023 25 61.6875 C24.6184375 60.52025391 24.236875 59.35300781 23.84375 58.15039062 C23.4828125 57.03212891 23.121875 55.91386719 22.75 54.76171875 C22.41484375 53.73006592 22.0796875 52.69841309 21.734375 51.63549805 C21 49 21 49 21 46 C20.34 46 19.68 46 19 46 C19 55.24 19 64.48 19 74 C12.73 74 6.46 74 0 74 C0 49.58 0 25.16 0 0 Z " fill="#396CF5" transform="translate(124,161)"/>
<path d="M0 0 C5.28 0 10.56 0 16 0 C16.99 6.27 17.98 12.54 19 19 C20.50898387 14.4730484 21.46158823 10.76888236 22.125 6.125 C22.41375 4.10375 22.7025 2.0825 23 0 C28.28 0 33.56 0 39 0 C39.33 13.86 39.66 27.72 40 42 C36.37 42 32.74 42 29 42 C28.67 36.72 28.34 31.44 28 26 C27.01 31.28 26.02 36.56 25 42 C21.37 42 17.74 42 14 42 C13.51622009 40.14703165 13.03821364 38.29255559 12.5625 36.4375 C12.29566406 35.40496094 12.02882812 34.37242187 11.75390625 33.30859375 C10.97952106 29.91012611 10.49293518 26.45054628 10 23 C9.67 29.27 9.34 35.54 9 42 C5.7 42 2.4 42 -1 42 C-1.21127444 27.98546201 -0.5693692 14.00038195 0 0 Z " fill="#FAFAFA" transform="translate(168,101)"/>
<path d="M0 0 C18 0 18 0 25 3 C28.36374252 8.31688334 28.91985147 13.79611287 28 20 C26.30451556 23.51656033 25.07045493 25.3458331 21.75 27.375 C18.07389237 28.21047901 14.76782097 28.12772274 11 28 C11 32.62 11 37.24 11 42 C7.37 42 3.74 42 0 42 C0 28.14 0 14.28 0 0 Z " fill="#FBFBFB" transform="translate(117,101)"/>
<path d="M0 0 C0.125 7.625 0.125 7.625 -1 11 C-4.96 10.67 -8.92 10.34 -13 10 C-10.18267594 14.89681826 -10.18267594 14.89681826 -6 17.5625 C-2.82842068 19.29845913 -0.86032027 20.85571635 1 24 C1.9816792 29.83232934 1.34666675 35.04197518 -2 40 C-5.8691629 42.57944193 -9.0856479 42.25808937 -13.5625 42.1875 C-14.34302734 42.18685547 -15.12355469 42.18621094 -15.92773438 42.18554688 C-21.71884586 42.14057707 -21.71884586 42.14057707 -24 41 C-24 37.7 -24 34.4 -24 31 C-20.04 31.33 -16.08 31.66 -12 32 C-11.67 30.68 -11.34 29.36 -11 28 C-11.70125 27.7525 -12.4025 27.505 -13.125 27.25 C-17.3459272 25.41481426 -20.81110383 23.34741566 -23.875 19.875 C-25.91585415 14.65948384 -25.87515724 9.28513279 -23.875 4.0625 C-17.98855815 -2.41258603 -7.99397932 -2.66465977 0 0 Z " fill="#F7F7F7" transform="translate(237,101)"/>
<path d="M0 0 C1.23169922 -0.02384766 2.46339844 -0.04769531 3.73242188 -0.07226562 C4.91513672 -0.07033203 6.09785156 -0.06839844 7.31640625 -0.06640625 C8.3947876 -0.06713135 9.47316895 -0.06785645 10.58422852 -0.06860352 C13.4375 0.5625 13.4375 0.5625 15.82397461 2.87524414 C17.4375 5.5625 17.4375 5.5625 17.375 9.1875 C16.1448421 13.61606846 16.1448421 13.61606846 13.4375 15.5625 C8.82276851 16.24305716 4.15926634 16.07179529 -0.5 16.0625 C-1.78841797 16.09085938 -3.07683594 16.11921875 -4.40429688 16.1484375 C-5.64115234 16.15101563 -6.87800781 16.15359375 -8.15234375 16.15625 C-9.85185181 16.16688477 -9.85185181 16.16688477 -11.58569336 16.17773438 C-14.5625 15.5625 -14.5625 15.5625 -16.92797852 13.21679688 C-18.93594436 9.95606429 -19.28266651 8.32336956 -18.5625 4.5625 C-13.05593462 -0.9540967 -7.36151547 -0.06569331 0 0 Z " fill="#03060C" transform="translate(85.5625,112.4375)"/>
<path d="M0 0 C1.23234375 -0.00515625 2.4646875 -0.0103125 3.734375 -0.015625 C5.66023438 0.00757813 5.66023438 0.00757813 7.625 0.03125 C8.90890625 0.01578125 10.1928125 0.0003125 11.515625 -0.015625 C12.74796875 -0.01046875 13.9803125 -0.0053125 15.25 0 C16.93996094 0.00676758 16.93996094 0.00676758 18.6640625 0.01367188 C22.25896296 0.64206806 23.44373926 1.65334259 25.625 4.53125 C26.125 7.53125 26.125 7.53125 25.625 10.53125 C23.41380786 13.47728042 22.22743006 14.42963876 18.55639648 15.04882812 C17.38149658 15.05333984 16.20659668 15.05785156 14.99609375 15.0625 C13.71412109 15.06765625 12.43214844 15.0728125 11.11132812 15.078125 C10.44689697 15.06974609 9.78246582 15.06136719 9.09790039 15.05273438 C7.06470933 15.03127332 5.03503618 15.05256708 3.00195312 15.078125 C1.72126953 15.07296875 0.44058594 15.0678125 -0.87890625 15.0625 C-2.05267822 15.05798828 -3.2264502 15.05347656 -4.43579102 15.04882812 C-7.375 14.53125 -7.375 14.53125 -9.25366211 12.68554688 C-10.79458406 9.72515165 -10.85511187 7.82344566 -10.375 4.53125 C-7.28992148 0.45110419 -5.0050424 0.02004308 0 0 Z " fill="#010207" transform="translate(77.375,226.46875)"/>
<path d="M0 0 C1.23234375 -0.00515625 2.4646875 -0.0103125 3.734375 -0.015625 C5.66023438 0.00757813 5.66023438 0.00757813 7.625 0.03125 C8.90890625 0.01578125 10.1928125 0.0003125 11.515625 -0.015625 C12.74796875 -0.01046875 13.9803125 -0.0053125 15.25 0 C16.93996094 0.00676758 16.93996094 0.00676758 18.6640625 0.01367188 C22.25896296 0.64206806 23.44373926 1.65334259 25.625 4.53125 C26.125 7.53125 26.125 7.53125 25.625 10.53125 C23.44373926 13.40915741 22.25896296 14.42043194 18.6640625 15.04882812 C17.53742188 15.05333984 16.41078125 15.05785156 15.25 15.0625 C14.01765625 15.06765625 12.7853125 15.0728125 11.515625 15.078125 C10.23171875 15.06265625 8.9478125 15.0471875 7.625 15.03125 C5.69914062 15.05445313 5.69914062 15.05445313 3.734375 15.078125 C2.50203125 15.07296875 1.2696875 15.0678125 0 15.0625 C-1.68996094 15.05573242 -1.68996094 15.05573242 -3.4140625 15.04882812 C-7.00896296 14.42043194 -8.19373926 13.40915741 -10.375 10.53125 C-10.875 7.53125 -10.875 7.53125 -10.375 4.53125 C-7.28468196 0.4539524 -5.00807414 0.02005522 0 0 Z " fill="#010308" transform="translate(77.375,141.46875)"/>
<path d="M0 0 C1.04450317 0.0002417 1.04450317 0.0002417 2.11010742 0.00048828 C4.23307596 -0.00388346 6.35396231 -0.04019063 8.4765625 -0.078125 C9.82486268 -0.08399358 11.17317274 -0.0879627 12.52148438 -0.08984375 C13.74988037 -0.09806152 14.97827637 -0.1062793 16.24389648 -0.11474609 C19.30664062 0.37109375 19.30664062 0.37109375 21.23461914 2.17724609 C22.88112835 5.54675913 22.27371772 7.8251444 21.30664062 11.37109375 C17.34264049 15.32535714 13.27002187 14.81870239 7.95703125 14.87890625 C6.77302734 14.87632812 5.58902344 14.87375 4.36914062 14.87109375 C3.18900391 14.89945313 2.00886719 14.9278125 0.79296875 14.95703125 C-8.86469394 14.97889353 -8.86469394 14.97889353 -12.01367188 12.0703125 C-13.69335938 9.37109375 -13.69335938 9.37109375 -13.63085938 5.68359375 C-11.59566218 -1.50743633 -6.37051213 0.04648869 0 0 Z " fill="#03060C" transform="translate(80.693359375,198.62890625)"/>
<path d="M0 0 C1.23234375 -0.00515625 2.4646875 -0.0103125 3.734375 -0.015625 C5.66023438 0.00757813 5.66023438 0.00757813 7.625 0.03125 C8.90890625 0.01578125 10.1928125 0.0003125 11.515625 -0.015625 C12.74796875 -0.01046875 13.9803125 -0.0053125 15.25 0 C16.93996094 0.00676758 16.93996094 0.00676758 18.6640625 0.01367188 C22.25896296 0.64206806 23.44373926 1.65334259 25.625 4.53125 C26.125 7.53125 26.125 7.53125 25.625 10.53125 C23.44490184 13.40468978 22.2506946 14.41852385 18.6640625 15.06469727 C14.98308551 15.10023301 11.30612278 15.1251652 7.625 15.09375 C5.69914062 15.12952148 5.69914062 15.12952148 3.734375 15.16601562 C2.50203125 15.16408203 1.2696875 15.16214844 0 15.16015625 C-1.12664062 15.16088135 -2.25328125 15.16160645 -3.4140625 15.16235352 C-6.375 14.53125 -6.375 14.53125 -8.7421875 12.15209961 C-10.58263353 9.1979746 -11.07268623 7.93247036 -10.375 4.53125 C-7.25079105 0.47650513 -5.02115223 0.02010759 0 0 Z " fill="#010307" transform="translate(77.375,169.46875)"/>
<path d="M0 0 C3.63 0 7.26 0 11 0 C11 13.86 11 27.72 11 42 C7.37 42 3.74 42 0 42 C0 28.14 0 14.28 0 0 Z " fill="#FEFEFE" transform="translate(149,101)"/>
<path d="M0 0 C1.12792969 -0.00708984 2.25585938 -0.01417969 3.41796875 -0.02148438 C13.07783757 0.05282231 13.07783757 0.05282231 17.5 3.4375 C18.5625 6.875 18.5625 6.875 18.5 10.4375 C16.32753539 13.42976887 15.10783938 14.33497637 11.43139648 14.95507812 C10.25649658 14.95958984 9.08159668 14.96410156 7.87109375 14.96875 C6.58912109 14.97390625 5.30714844 14.9790625 3.98632812 14.984375 C3.32189697 14.97599609 2.65746582 14.96761719 1.97290039 14.95898438 C-0.06029067 14.93752332 -2.08996382 14.95881708 -4.12304688 14.984375 C-5.40373047 14.97921875 -6.68441406 14.9740625 -8.00390625 14.96875 C-9.17767822 14.96423828 -10.3514502 14.95972656 -11.56079102 14.95507812 C-14.5 14.4375 -14.5 14.4375 -16.37475586 12.59179688 C-17.93708743 9.60068952 -18.05424319 7.76295915 -17.5 4.4375 C-12.96269555 -1.16323518 -6.58565397 -0.11666016 0 0 Z " fill="#03060C" transform="translate(84.5,84.5625)"/>
<path d="M0 0 C0.83491974 -0.00570007 1.66983948 -0.01140015 2.53005981 -0.01727295 C4.30046312 -0.02673758 6.07088417 -0.03326272 7.84130859 -0.03710938 C10.55207048 -0.04680972 13.2620727 -0.07781645 15.97265625 -0.109375 C17.69009965 -0.11590528 19.40754849 -0.12115565 21.125 -0.125 C21.9375827 -0.1373468 22.75016541 -0.1496936 23.58737183 -0.16241455 C29.35261897 -0.13956853 29.35261897 -0.13956853 32.6953125 3.203125 C12.8953125 2.708125 12.8953125 2.708125 -7.3046875 2.203125 C-7.3046875 26.623125 -7.3046875 51.043125 -7.3046875 76.203125 C-7.9646875 76.203125 -8.6246875 76.203125 -9.3046875 76.203125 C-9.32781196 66.44161512 -9.34560311 56.6801117 -9.35649967 46.91858006 C-9.36172828 42.38638406 -9.36882551 37.85420673 -9.38012695 33.32202148 C-9.39095664 28.9518967 -9.39696451 24.58178992 -9.39956474 20.21165276 C-9.40141885 18.54061537 -9.40503918 16.86957903 -9.41041756 15.19854927 C-9.41762909 12.86614949 -9.4186784 10.53382507 -9.41821289 8.20141602 C-9.42180817 7.5037059 -9.42540344 6.80599579 -9.42910767 6.08714294 C-9.41315273 -1.25318097 -6.48013774 0.03372366 0 0 Z " fill="#0D1944" transform="translate(189.3046875,158.796875)"/>
<path d="M0 0 C7.26 0 14.52 0 22 0 C22 7.26 22 14.52 22 22 C22.66 22 23.32 22 24 22 C24 20.35 24 18.7 24 17 C24.66 17 25.32 17 26 17 C26 15.02 26 13.04 26 11 C26.66 11 27.32 11 28 11 C28 9.02 28 7.04 28 5 C28.66 5 29.32 5 30 5 C27.99421564 14.5660485 25.64290242 23.35459549 21 32 C20.67 32 20.34 32 20 32 C20 21.77 20 11.54 20 1 C13.73 1 7.46 1 1 1 C1 25.42 1 49.84 1 75 C0.67 75 0.34 75 0 75 C0 50.25 0 25.5 0 0 Z " fill="#12225A" transform="translate(123,160)"/>
<path d="M0 0 C0.33 0 0.66 0 1 0 C1 24.75 1 49.5 1 75 C7.6 75 14.2 75 21 75 C21 65.76 21 56.52 21 47 C21.66 47 22.32 47 23 47 C23.99 50.63 24.98 54.26 26 58 C25.34 57.67 24.68 57.34 24 57 C23.97494385 57.57032959 23.9498877 58.14065918 23.92407227 58.72827148 C23.80843451 61.29826157 23.68556376 63.86785527 23.5625 66.4375 C23.52318359 67.33533203 23.48386719 68.23316406 23.44335938 69.15820312 C23.40146484 70.01220703 23.35957031 70.86621094 23.31640625 71.74609375 C23.27974854 72.53685303 23.24309082 73.3276123 23.20532227 74.14233398 C23 76 23 76 22 77 C20.53521494 77.09883336 19.06577042 77.13079289 17.59765625 77.1328125 C16.70755859 77.13410156 15.81746094 77.13539063 14.90039062 77.13671875 C13.49563477 77.13091797 13.49563477 77.13091797 12.0625 77.125 C11.12986328 77.12886719 10.19722656 77.13273437 9.23632812 77.13671875 C8.34494141 77.13542969 7.45355469 77.13414062 6.53515625 77.1328125 C5.714104 77.13168457 4.89305176 77.13055664 4.04711914 77.12939453 C2 77 2 77 0 76 C0 50.92 0 25.84 0 0 Z " fill="#000025" transform="translate(122,160)"/>
<path d="M0 0 C1.32 0 2.64 0 4 0 C6.41550662 2.84684709 6.97645002 4.78020015 7.375 8.5 C6.84314188 13.46400911 4.80546933 16.81343472 1 20 C-0.90112305 20.34057617 -0.90112305 20.34057617 -3.01171875 20.29296875 C-3.76904297 20.28330078 -4.52636719 20.27363281 -5.30664062 20.26367188 C-6.09232422 20.23853516 -6.87800781 20.21339844 -7.6875 20.1875 C-8.88342773 20.16719727 -8.88342773 20.16719727 -10.10351562 20.14648438 C-12.06929967 20.11117089 -14.03473582 20.05736447 -16 20 C-16 19.34 -16 18.68 -16 18 C-19.96 18 -23.92 18 -28 18 C-28 17.34 -28 16.68 -28 16 C-18.43 15.67 -8.86 15.34 1 15 C2.53546323 6.90795938 2.53546323 6.90795938 1 3 C0.34 3 -0.32 3 -1 3 C-0.67 2.01 -0.34 1.02 0 0 Z " fill="#749ACB" transform="translate(100,225)"/>
<path d="M0 0 C7 0 7 0 8.9140625 1.65234375 C10.21268931 4.45980674 10.40020779 6.47454604 10.375 9.5625 C10.38273438 10.51253906 10.39046875 11.46257812 10.3984375 12.44140625 C10 15 10 15 8.9140625 16.83984375 C7 18 7 18 0 18 C0 12.06 0 6.12 0 0 Z " fill="#010517" transform="translate(202,204)"/>
<path d="M0 0 C14.86899499 -1.03336645 14.86899499 -1.03336645 19.375 2.875 C22.68976556 6.39375114 23.34253952 9.05387091 23.2890625 13.96484375 C22.83609822 17.15395714 21.26079568 18.80379848 19 21 C15.77208445 23.1519437 14.71599191 23.20086443 11 23 C11.61875 22.95875 12.2375 22.9175 12.875 22.875 C15.28614923 22.16613887 15.28614923 22.16613887 16.1875 19.375 C18.10557205 13.01912483 18.10557205 13.01912483 16.89916992 6.82714844 C14.23967365 4.26850721 12.45100089 4.45917373 8.80078125 4.390625 C7.59228516 4.35839844 6.38378906 4.32617188 5.13867188 4.29296875 C3.2447168 4.27169922 3.2447168 4.27169922 1.3125 4.25 C0.03826172 4.22035156 -1.23597656 4.19070312 -2.54882812 4.16015625 C-5.69928292 4.08935951 -8.8489934 4.03670953 -12 4 C-12 3.67 -12 3.34 -12 3 C-6.06 2.505 -6.06 2.505 0 2 C0 1.34 0 0.68 0 0 Z " fill="#78A1D5" transform="translate(84,109)"/>
<path d="M0 0 C16.93017249 0.73830827 16.93017249 0.73830827 22 6.125 C23.45162671 10.29842679 23.24303792 13.77519626 22 18 C19.8125 21.125 19.8125 21.125 17 23 C13.6875 22.8125 13.6875 22.8125 11 22 C11 21.34 11 20.68 11 20 C3.41 20 -4.18 20 -12 20 C-12 19.67 -12 19.34 -12 19 C-2.43 18.67 7.14 18.34 17 18 C18.81989159 10.52174919 18.81989159 10.52174919 16 7 C15.01 6.67 14.02 6.34 13 6 C13 5.01 13 4.02 13 3 C9.04 3 5.08 3 1 3 C0.67 2.01 0.34 1.02 0 0 Z " fill="#739ACC" transform="translate(84,80)"/>
<path d="M0 0 C4 2 4 2 5 4 C4.01 4 3.02 4 2 4 C1.67 51.85 1.34 99.7 1 149 C0.67 149 0.34 149 0 149 C0 99.83 0 50.66 0 0 Z " fill="#8AABD4" transform="translate(249,93)"/>
<path d="M0 0 C6.15234375 0.5859375 6.15234375 0.5859375 8 1 C9.2220897 3.4441794 9.23641068 5.21029872 9.3125 7.9375 C9.34988281 8.81277344 9.38726562 9.68804687 9.42578125 10.58984375 C9 13 9 13 7.29296875 14.81640625 C5 16 5 16 0 16 C0 10.72 0 5.44 0 0 Z " fill="#01061D" transform="translate(202,177)"/>
<path d="M0 0 C2.37625177 -0.10883596 4.74743976 -0.18766696 7.125 -0.25 C7.79015625 -0.28351563 8.4553125 -0.31703125 9.140625 -0.3515625 C14.27756429 -0.4522868 17.05415342 0.78289085 21 4 C23.28632839 7.3342289 23.05888717 9.78901468 22.375 13.625 C21.6092487 16.61341904 21.18618951 17.80799207 19 20.0625 C17 21 17 21 15 21 C15.75 16.25 15.75 16.25 18 14 C18.45777953 9.95163293 18.45777953 9.95163293 16.89526367 6.3269043 C14.06906037 4.34823433 11.78057721 4.66226318 8.36328125 4.70703125 C7.06455078 4.71669922 5.76582031 4.72636719 4.42773438 4.73632812 C3.05598361 4.76139415 1.68423882 4.78678899 0.3125 4.8125 C-1.07094924 4.8275498 -2.45441401 4.8412377 -3.83789062 4.85351562 C-7.22565207 4.88892777 -10.61263139 4.93831946 -14 5 C-14 4.34 -14 3.68 -14 3 C-5.09 2.67 3.82 2.34 13 2 C8.71 1.67 4.42 1.34 0 1 C0 0.67 0 0.34 0 0 Z " fill="#7EA8DC" transform="translate(84,166)"/>
<path d="M0 0 C3.54293666 1.86470351 5.77228817 3.09364418 7 7 C7.51791029 10.97064556 7.14039819 12.73424629 5.25 16.3125 C3 19 3 19 0.75 19.875 C0.1725 19.91625 -0.405 19.9575 -1 20 C-1 18.68 -1 17.36 -1 16 C-0.34 16 0.32 16 1 16 C1.24954005 14.56589632 1.47392642 13.12739928 1.6875 11.6875 C1.87892578 10.48673828 1.87892578 10.48673828 2.07421875 9.26171875 C2.19956424 6.98745673 2.19956424 6.98745673 0.91015625 5.37695312 C-1.92088482 3.33617199 -4.18042626 3.66175231 -7.63671875 3.70703125 C-8.93544922 3.71669922 -10.23417969 3.72636719 -11.57226562 3.73632812 C-12.94401639 3.76139415 -14.31576118 3.78678899 -15.6875 3.8125 C-17.07094924 3.8275498 -18.45441401 3.8412377 -19.83789062 3.85351562 C-23.22565207 3.88892777 -26.61263139 3.93831946 -30 4 C-30 3.34 -30 2.68 -30 2 C-20.1 2 -10.2 2 0 2 C0 1.34 0 0.68 0 0 Z " fill="#7FA9DC" transform="translate(100,139)"/>
<path d="M0 0 C0.66 0 1.32 0 2 0 C2.99 3.63 3.98 7.26 5 11 C4.34 10.67 3.68 10.34 3 10 C2.97494385 10.57032959 2.9498877 11.14065918 2.92407227 11.72827148 C2.80843451 14.29826157 2.68556376 16.86785527 2.5625 19.4375 C2.52318359 20.33533203 2.48386719 21.23316406 2.44335938 22.15820312 C2.40146484 23.01220703 2.35957031 23.86621094 2.31640625 24.74609375 C2.27974854 25.53685303 2.24309082 26.3276123 2.20532227 27.14233398 C2 29 2 29 1 30 C-0.4887186 30.08669432 -1.981445 30.10703494 -3.47265625 30.09765625 C-4.37177734 30.09443359 -5.27089844 30.09121094 -6.19726562 30.08789062 C-7.14279297 30.07951172 -8.08832031 30.07113281 -9.0625 30.0625 C-10.01189453 30.05798828 -10.96128906 30.05347656 -11.93945312 30.04882812 C-14.29303065 30.0370011 -16.64648477 30.02052025 -19 30 C-19 29.67 -19 29.34 -19 29 C-12.73 29 -6.46 29 0 29 C0 19.43 0 9.86 0 0 Z " fill="#000A33" transform="translate(143,207)"/>
<path d="M0 0 C1.32 0 2.64 0 4 0 C6.41550662 2.84684709 6.97645002 4.78020015 7.375 8.5 C6.97541536 12.22945665 6.27230196 14.05442338 4 17 C3.01 17.66 2.02 18.32 1 19 C0.34 18.67 -0.32 18.34 -1 18 C-1 17.01 -1 16.02 -1 15 C-0.34 15 0.32 15 1 15 C1.19573608 13.56359829 1.38127816 12.12580496 1.5625 10.6875 C1.71912109 9.48673828 1.71912109 9.48673828 1.87890625 8.26171875 C2.14755178 5.83182884 2.14755178 5.83182884 1 3 C0.34 3 -0.32 3 -1 3 C-0.67 2.01 -0.34 1.02 0 0 Z " fill="#7AA7DE" transform="translate(100,225)"/>
<path d="M0 0 C2.15947866 -0.00978579 4.31803576 -0.04089743 6.47729492 -0.07226562 C7.85294035 -0.0787894 9.22859253 -0.08404232 10.60424805 -0.08789062 C12.47149536 -0.10190918 12.47149536 -0.10190918 14.37646484 -0.11621094 C17.4675293 0.24023438 17.4675293 0.24023438 20.4675293 3.24023438 C0.6675293 2.74523437 0.6675293 2.74523437 -19.5324707 2.24023438 C-19.5324707 1.91023437 -19.5324707 1.58023438 -19.5324707 1.24023438 C-13.03303077 -0.0036895 -6.58962316 0.01810958 0 0 Z " fill="#061549" transform="translate(201.532470703125,158.759765625)"/>
<path d="M0 0 C1.485 0.495 1.485 0.495 3 1 C2.61679443 3.68243901 1.92847619 5.09801411 0.3125 7.3125 C-2 9 -2 9 -5.25 8.75 C-6.1575 8.5025 -7.065 8.255 -8 8 C-8 7.34 -8 6.68 -8 6 C-15.59 6 -23.18 6 -31 6 C-31 5.67 -31 5.34 -31 5 C-21.43 4.67 -11.86 4.34 -2 4 C-1.34 2.68 -0.68 1.36 0 0 Z " fill="#6F93C1" transform="translate(103,94)"/>
<path d="M0 0 C2.64389311 1.12165162 4.15345436 2.76141376 6.0625 4.875 C5.4025 5.865 4.7425 6.855 4.0625 7.875 C3.4025 7.875 2.7425 7.875 2.0625 7.875 C1.4025 6.885 0.7425 5.895 0.0625 4.875 C-2.84363434 4.36353802 -2.84363434 4.36353802 -6.2578125 4.36328125 C-8.14306641 4.31010742 -8.14306641 4.31010742 -10.06640625 4.25585938 C-12.04447266 4.22202148 -12.04447266 4.22202148 -14.0625 4.1875 C-15.40237759 4.15433471 -16.74222311 4.11984578 -18.08203125 4.08398438 C-21.3671033 4.00126673 -24.65190032 3.93219307 -27.9375 3.875 C-27.9375 3.545 -27.9375 3.215 -27.9375 2.875 C-26.91595825 2.845271 -26.91595825 2.845271 -25.8737793 2.81494141 C-22.79046083 2.71973017 -19.70782351 2.61003534 -16.625 2.5 C-15.55314453 2.4690625 -14.48128906 2.438125 -13.37695312 2.40625 C-11.83491211 2.34824219 -11.83491211 2.34824219 -10.26171875 2.2890625 C-8.8399231 2.24193115 -8.8399231 2.24193115 -7.3894043 2.19384766 C-4.40583404 1.80586172 -2.95940459 -0.19092933 0 0 Z " fill="#6B8FBB" transform="translate(99.9375,195.125)"/>
<path d="M0 0 C2 2 2 2 5 12 C-2.59 12 -10.18 12 -18 12 C-17.67 10.68 -17.34 9.36 -17 8 C-17 8.66 -17 9.32 -17 10 C-10.73 10 -4.46 10 2 10 C1.34 8.35 0.68 6.7 0 5 C-0.125 2.1875 -0.125 2.1875 0 0 Z " fill="#4367CE" transform="translate(171,223)"/>
<path d="M0 0 C7.27439887 4.12871287 7.27439887 4.12871287 9.1875 9.0625 C10.75904878 15.28266368 11.07734001 22.22998749 8 28 C7.67 28 7.34 28 7 28 C7.00112793 27.39003174 7.00225586 26.78006348 7.00341797 26.15161133 C6.99126431 23.37080026 6.93356916 20.59270493 6.875 17.8125 C6.87886719 16.37293945 6.87886719 16.37293945 6.8828125 14.90429688 C6.87483102 9.72910209 6.87483102 9.72910209 4.60644531 5.27880859 C2.78146935 3.77708728 2.78146935 3.77708728 0 2 C0 1.34 0 0.68 0 0 Z " fill="#3A5FCA" transform="translate(224,196)"/>
<path d="M0 0 C7.26 0 14.52 0 22 0 C21.01 2.97 20.02 5.94 19 9 C18.67 9 18.34 9 18 9 C18 6.69 18 4.38 18 2 C8.595 2.495 8.595 2.495 -1 3 C-0.67 2.01 -0.34 1.02 0 0 Z " fill="#3E6ADD" transform="translate(155,161)"/>
<path d="M0 0 C4.95 0 9.9 0 15 0 C15 0.33 15 0.66 15 1 C10.71 1 6.42 1 2 1 C2 1.99 2 2.98 2 4 C6.62 4 11.24 4 16 4 C16.33 4.66 16.66 5.32 17 6 C11.39 6 5.78 6 0 6 C0 4.02 0 2.04 0 0 Z " fill="#121E35" transform="translate(83,217)"/>
<path d="M0 0 C5.61 0 11.22 0 17 0 C16.67 0.66 16.34 1.32 16 2 C11.38 2 6.76 2 2 2 C2 2.99 2 3.98 2 5 C6.29 5 10.58 5 15 5 C15 5.33 15 5.66 15 6 C10.05 6 5.1 6 0 6 C0 4.02 0 2.04 0 0 Z " fill="#111D34" transform="translate(83,103)"/>
<path d="M0 0 C2 2 2 2 2.3125 4.8125 C1.96290507 8.37836827 1.17620813 10.17898946 -1 13 C-1.99 13.33 -2.98 13.66 -4 14 C-4.99 13.01 -5.98 12.02 -7 11 C-6.360625 10.46375 -5.72125 9.9275 -5.0625 9.375 C-2.60442877 6.54449373 -2.48600536 4.64504022 -2 1 C-1.34 0.67 -0.68 0.34 0 0 Z " fill="#7AA4D8" transform="translate(105,201)"/>
<path d="M0 0 C4 1 4 1 5 2 C5.23728814 8.52542373 5.23728814 8.52542373 4 11 C2.68 11 1.36 11 0 11 C0 7.37 0 3.74 0 0 Z " fill="#111111" transform="translate(128,110)"/>
<path d="M0 0 C0.66 0.33 1.32 0.66 2 1 C1.51789063 1.53109375 1.03578125 2.0621875 0.5390625 2.609375 C-0.09257813 3.31578125 -0.72421875 4.0221875 -1.375 4.75 C-2.00148438 5.44609375 -2.62796875 6.1421875 -3.2734375 6.859375 C-5.26295679 9.17019415 -5.26295679 9.17019415 -7 13 C-3.37 13 0.26 13 4 13 C4.33 13.66 4.66 14.32 5 15 C-1.93 14.505 -1.93 14.505 -9 14 C-8.02679703 9.13398517 -7.64996592 8.13234045 -4.5 4.75 C-3.8709375 4.06421875 -3.241875 3.3784375 -2.59375 2.671875 C-1.73729192 1.77343369 -0.87770076 0.87770076 0 0 Z " fill="#050A1A" transform="translate(94,67)"/>
<path d="M0 0 C0.33 0.99 0.66 1.98 1 3 C-2.96 6.96 -6.92 10.92 -11 15 C-11.99 14.67 -12.98 14.34 -14 14 C-9.38 9.38 -4.76 4.76 0 0 Z " fill="#86B1E7" transform="translate(69,63)"/>
<path d="M0 0 C0.33 0 0.66 0 1 0 C1.37076301 3.89301165 1.10260771 5.80577827 -0.75 9.3125 C-3 12 -3 12 -5.25 12.875 C-5.8275 12.91625 -6.405 12.9575 -7 13 C-7 11.68 -7 10.36 -7 9 C-6.34 9 -5.68 9 -5 9 C-4.34 6.69 -3.68 4.38 -3 2 C-2.01 3.485 -2.01 3.485 -1 5 C-0.67 3.35 -0.34 1.7 0 0 Z " fill="#7CA4D5" transform="translate(106,146)"/>
<path d="M0 0 C1.32 0 2.64 0 4 0 C7.26204794 3.8445565 7.28855285 7.0946016 7 12 C6.566875 11.401875 6.13375 10.80375 5.6875 10.1875 C4.09318895 8.01024117 4.09318895 8.01024117 2.3125 6.375 C1 5 1 5 1 3 C0.34 3 -0.32 3 -1 3 C-0.67 2.01 -0.34 1.02 0 0 Z " fill="#759DCD" transform="translate(100,225)"/>
<path d="M0 0 C0.66 0 1.32 0 2 0 C2.08152344 2.54232342 2.14073716 5.08199202 2.1875 7.625 C2.22520508 8.69427734 2.22520508 8.69427734 2.26367188 9.78515625 C2.33024446 14.62276416 1.55559453 17.74738338 -1 22 C-1.66 22 -2.32 22 -3 22 C-2.505 20.783125 -2.01 19.56625 -1.5 18.3125 C0.55731273 12.2661255 0.26343324 6.31264087 0 0 Z " fill="#01062A" transform="translate(233,206)"/>
<path d="M0 0 C2.43816585 -0.0809723 4.87364384 -0.14046972 7.3125 -0.1875 C8.34793945 -0.22520508 8.34793945 -0.22520508 9.40429688 -0.26367188 C14.55674183 -0.33834499 14.55674183 -0.33834499 16.98046875 1.51171875 C17.31691406 2.00285156 17.65335938 2.49398437 18 3 C16.02 3.33 14.04 3.66 12 4 C11.67 3.34 11.34 2.68 11 2 C8.41394668 1.5316735 8.41394668 1.5316735 5.4375 1.375 C3.91962891 1.26285156 3.91962891 1.26285156 2.37109375 1.1484375 C1.19740234 1.07496094 1.19740234 1.07496094 0 1 C0 0.67 0 0.34 0 0 Z " fill="#82ACDE" transform="translate(85,223)"/>
<path d="M0 0 C0.66 0.33 1.32 0.66 2 1 C2 2.98 2 4.96 2 7 C0.68 6.67 -0.64 6.34 -2 6 C-2 4.35 -2 2.7 -2 1 C-1.34 0.67 -0.68 0.34 0 0 Z " fill="#81A2CE" transform="translate(105,88)"/>
<path d="M0 0 C1.32 0 2.64 0 4 0 C4.125 3.375 4.125 3.375 4 7 C3.34 7.66 2.68 8.32 2 9 C1.34 6.03 0.68 3.06 0 0 Z " fill="#7FADE6" transform="translate(102,144)"/>
<path d="M0 0 C2.95183101 2.95183101 3.08663988 5.95511947 4 10 C2.68 9.34 1.36 8.68 0 8 C0 5.36 0 2.72 0 0 Z " fill="#040B36" transform="translate(144,208)"/>
<path d="M0 0 C3.3125 -0.1875 3.3125 -0.1875 7 0 C7.99 0.99 8.98 1.98 10 3 C6.37 2.67 2.74 2.34 -1 2 C-0.67 1.34 -0.34 0.68 0 0 Z " fill="#01082E" transform="translate(212,159)"/>
<path d="M0 0 C5.625 -0.25 5.625 -0.25 9 2 C8.67 2.99 8.34 3.98 8 5 C8 4.34 8 3.68 8 3 C5.36 2.67 2.72 2.34 0 2 C0 1.34 0 0.68 0 0 Z " fill="#3D67DA" transform="translate(202,175)"/>
<path d="M0 0 C0.33 0 0.66 0 1 0 C1.25 6.625 1.25 6.625 -1 10 C-1.66 10 -2.32 10 -3 10 C-2.01 6.7 -1.02 3.4 0 0 Z " fill="#050E38" transform="translate(168,183)"/>
<path d="M0 0 C0.33 0 0.66 0 1 0 C1.25 6.625 1.25 6.625 -1 10 C-1.66 10 -2.32 10 -3 10 C-2.01 6.7 -1.02 3.4 0 0 Z " fill="#050F3B" transform="translate(174,167)"/>
</svg>
